<svg width="600" height="280" viewBox="0 0 600 280" fill="none" xmlns="http://www.w3.org/2000/svg">
  <rect width="600" height="280" rx="24" fill="#FFE7B1"/>
  <rect x="72" y="82" width="456" height="126" rx="16" fill="#2F2B27"/>
  <rect x="96" y="98" width="40" height="96" rx="8" fill="#FFF8E9"/>
  <rect x="142" y="98" width="40" height="96" rx="8" fill="#FFF8E9"/>
  <rect x="188" y="98" width="40" height="96" rx="8" fill="#FFF8E9"/>
  <rect x="234" y="98" width="40" height="96" rx="8" fill="#FFF8E9"/>
  <rect x="280" y="98" width="40" height="96" rx="8" fill="#FFF8E9"/>
  <rect x="326" y="98" width="40" height="96" rx="8" fill="#FFF8E9"/>
  <rect x="372" y="98" width="40" height="96" rx="8" fill="#FFF8E9"/>
  <rect x="418" y="98" width="40" height="96" rx="8" fill="#FFF8E9"/>
  <rect x="464" y="98" width="40" height="96" rx="8" fill="#FFF8E9"/>
  <circle cx="130" cy="58" r="14" fill="#FFB22E"/>
  <path d="M130 26V50" stroke="#FFB22E" stroke-width="8" stroke-linecap="round"/>
</svg>
